<svg xmlns="http://www.w3.org/2000/svg" width="20" height="20" viewBox="0 0 20 20"><defs><style>.a{fill:#ff2796;}.b{fill:#fd5f6e;}.c{fill:#fb7a5b;}.d{fill:#fa9647;}.e{fill:#fcd999;}.f{fill:#fff;}</style></defs><g transform="translate(-0.001 -0.003)"><path d="M43.41,38.917l2.682-1.676-2.656-1.66,1.485-2.793-3.13-.11-.111-3.161-2.765,1.47-1.676-2.682-1.66,2.656-2.793-1.485-.11,3.13-3.161.111,1.47,2.765L28.3,37.158l2.656,1.66-1.485,2.793,3.13.11.111,3.161,2.765-1.47,1.676,2.682,1.66-2.656,2.793,1.485.11-3.13,3.161-.111Z" transform="translate(-27.196 -27.196)"/><path class="a" d="M208.345,10.044l-2.988-1.867,1.668-3.138L203.5,4.915l-.124-3.552-3.111,1.654L198.386,0l-.041.066L196,10l2.344,9.934,1.826-2.922,3.138,1.668.123-3.521,3.552-.124-1.654-3.111Z" transform="translate(-188.344)"/><path class="b" d="M8.175,4.606,5.037,2.938,4.913,6.458l-3.552.124L3.015,9.694,0,11.577l2.987,1.867L1.32,16.583l3.521.123.124,3.552L8.076,18.6,9.96,21.618,10,21.553V1.684Z" transform="translate(0 -1.615)"/><path class="c" d="M206.134,64.437l-2.324-1.453,1.3-2.447-2.739-.1-.1-2.77-2.42,1.286-1.469-2.35-.041.066L196,64.4l2.344,7.723,1.412-2.258,2.447,1.3.1-2.739,2.77-.1-1.286-2.42Z" transform="translate(-188.344 -54.393)"/><path class="d" d="M62.982,60.546l-2.447-1.3-.1,2.739-2.77.1,1.286,2.42L56.6,65.97l2.324,1.453-1.3,2.447,2.739.1.1,2.77,2.42-1.286,1.469,2.35.041-.066V58.288Z" transform="translate(-54.393 -56.008)"/><path class="e" d="M231.645,146.026l-1.329-.831.75-1.411-1.566-.055-.056-1.6-1.384.736-.847-1.355-.041.066L226,145.985l1.172,4.407.789-1.263,1.411.75.055-1.566,1.6-.056-.736-1.384Z" transform="translate(-217.172 -135.982)"/><path class="f" d="M145.194,144.455l-1.411-.75-.055,1.566-1.6.056.736,1.384-1.355.847,1.329.83-.75,1.411,1.566.055.056,1.6,1.384-.736.847,1.355.041-.066v-8.813Z" transform="translate(-135.982 -137.596)"/></g></svg>